<mxfile host="app.diagrams.net" modified="2023-12-09T13:44:03.141Z" agent="Mozilla/5.0 (Windows NT 10.0; Win64; x64) AppleWebKit/537.36 (KHTML, like Gecko) Chrome/119.0.0.0 Safari/537.36" version="22.1.7" etag="5dD4vtFcAFzS3SFPs3Yz" type="github">
  <diagram name="第 1 页" id="coex86hfs04hS-hthQD4">
    <mxGraphModel>
      <root>
        <mxCell id="0" />
        <mxCell id="1" parent="0" />
      </root>
    </mxGraphModel>
  </diagram>
</mxfile>
